# xmcd
#
# Track frame offsets:
#	150
#	15023
#	30659
#	42291
#	57424
#	74282
#	92962
#	108888
#	127746
#	143207
#	158625
#	172627
#	192389
#	206624
#	228369
#	242164
#
# Disc length: 3545 seconds
#
# Revision: 0
# Processed by: cddbd v1.5.2PL0 Copyright (c) Steve Scherf et al.
# Submitted via: EZCDAudioConverter 2.1.7.1
#
DISCID=c70dd710
DTITLE=V/A - Too Slow To Disco V2
DYEAR=1900
DGENRE=
TTITLE0=Daryl Hall and John Oates - Alone Too Long
TTITLE1=Ben Sidran - Hey Hey Baby
TTITLE2=Jimmy Gray Hall - Be That Way
TTITLE3=Eric Kaz - Come With Me
TTITLE4=LeBlanc and Carr - Stronger Love
TTITLE5=Dave Raynor - Leave Me Alone Tonight
TTITLE6=R&J Stone - Keep On Holding Me
TTITLE7=Larsen/Feiten Band - Who'll Be The Fool Tonight
TTITLE8=Byrne and Barnes - Never Gonna Stop Lovin' You
TTITLE9=Paul Davis - Medicine Woman
TTITLE10=Joe Vitale - Step On You
TTITLE11=Niteflyte - If You Want It
TTITLE12=Bruce Hibbard - Never Turnin' Back
TTITLE13=Streetplayer - Shades Of Winter
TTITLE14=Michael Omartian - Fat City
TTITLE15=Michael Nesmith - Capsule (Hello People A Hundred Years From Now)
EXTD=
EXTT0=
EXTT1=
EXTT2=
EXTT3=
EXTT4=
EXTT5=
EXTT6=
EXTT7=
EXTT8=
EXTT9=
EXTT10=
EXTT11=
EXTT12=
EXTT13=
EXTT14=
EXTT15=
PLAYORDER=
